<svg height="496pt" viewBox="-2 0 496 496.35809" width="496pt" xmlns="http://www.w3.org/2000/svg"><g fill="#78b9eb"><path d="m161.550781 316.589844c1.027344 0 2.054688.097656 3.0625.289062-1.007812-.191406-2.035156-.289062-3.0625-.289062zm0 0"/><path d="m174.910156 323.757812c1.714844 2.613282 2.628906 5.675782 2.625 8.800782.003906-3.125-.910156-6.1875-2.625-8.800782zm0 0"/><path d="m177.535156 332.574219c.011719 4.242187-1.667968 8.3125-4.664062 11.3125 2.996094-3 4.675781-7.070313 4.664062-11.3125zm0 0"/><path d="m308.632812 343.886719 33.941407-33.941407c6.25-6.25 16.378906-6.25 22.628906 0l113.136719 113.136719c6.25 6.25 6.25 16.378907 0 22.628907l-33.941406 33.941406c-6.246094 6.246094-16.378907 6.246094-22.625 0l-113.140626-113.136719c-6.246093-6.25-6.246093-16.378906 0-22.628906zm0 0"/><path d="m184.183594 128.925781-113.136719-113.136719c-6.25-6.25-16.382813-6.25-22.632813 0l-33.9375 33.9375c-6.25 6.25-6.25 16.382813 0 22.632813l113.136719 113.136719c6.25 6.246094 16.375 6.246094 22.625 0l16.96875-16.976563 16.96875-16.96875c6.246094-6.246093 6.25-16.375.007813-22.625zm0 0"/><path d="m161.550781 348.519531c1.03125.007813 2.058594-.082031 3.070313-.265625-1.011719.183594-2.039063.273438-3.070313.265625zm0 0"/><path d="m155.527344 317.757812c1.914062-.769531 3.957031-1.167968 6.023437-1.167968-2.066406 0-4.109375.398437-6.023437 1.167968zm0 0"/></g><path d="m485.527344 421-120.800782-120.800781c-5.617187-5.59375-14.703124-5.59375-20.320312 0l-18.320312 18.320312-11.359376-11.359375 35.441407-35.441406c1.183593-1.144531 2.183593-2.46875 2.957031-3.921875 5.042969-9.546875 3.328125-21.257813-4.238281-28.957031l-91.121094-91.121094c-9.460937-9.359375-24.695313-9.359375-34.160156 0l-34.160157 34.160156-11.359374-11.359375 12.640624-12.640625c1.210938-1.152344 2.210938-2.503906 2.960938-4 5.078125-9.515625 3.359375-21.226562-4.242188-28.878906l-120.800781-120.800781c-2.679687-2.6875-6.320312-4.199219-10.117187-4.199219s-7.4375 1.511719-10.121094 4.199219l-42.398438 42.320312c-1.164062 1.191407-2.160156 2.539063-2.960937 4-5.039063 9.519531-3.324219 21.207031 4.238281 28.878907l113.839844 113.921874c4.566406 4.492188 10.714844 7.019532 17.121094 7.039063 6.386718-.003906 12.511718-2.535156 17.039062-7.039063l11.441406-11.441406 11.359376 11.441406-35.441407 35.359376c-1.183593 1.171874-2.183593 2.519531-2.957031 4-5.042969 9.546874-3.328125 21.257812 4.238281 28.957031l39.839844 39.839843-12.480469 12.480469c-9.199218-4.179687-20.011718-2.378906-27.359375 4.5625-4.546875 4.464844-7.085937 10.585938-7.039062 16.957031v.242188c.019531 13.121094 10.558593 23.804688 23.679687 24h.640625c6.34375.015625 12.425781-2.519531 16.878907-7.039062 7.199218-7.242188 9.058593-18.234376 4.640624-27.441407l12.480469-12.398437 39.839844 39.839844c9.453125 9.386718 24.707031 9.386718 34.160156 0l34.160157-34.160157 11.359374 11.4375-12.640624 12.640625c-1.207032 1.125-2.210938 2.449219-2.960938 3.921875-5.078125 9.539063-3.359375 21.273438 4.242188 28.957031l113.839843 113.84375c9.453125 9.382813 24.707031 9.382813 34.160157 0l35.4375-35.441406c1.164062-1.164062 2.160156-2.484375 2.960937-3.921875 5.042969-9.546875 3.328125-21.257812-4.238281-28.957031zm-318.320313-82.800781c-1.226562 1.164062-2.800781 1.894531-4.480469 2.078125-.417968.125-.847656.207031-1.28125.242187-2.074218-.019531-4.054687-.851562-5.519531-2.320312-3.101562-3.121094-3.101562-8.160157 0-11.28125 2.308594-2.191407 5.679688-2.847657 8.640625-1.679688.988282.367188 1.886719.941407 2.640625 1.679688.757813.753906 1.355469 1.652343 1.757813 2.640625.386718.964844.578125 2 .5625 3.039062.027344 2.105469-.8125 4.132813-2.320313 5.601563zm305.4375 101.839843-33.917969 33.917969c-3.121093 3.101563-8.160156 3.101563-11.28125 0l-113.117187-113.117187c-1.535156-1.476563-2.402344-3.511719-2.402344-5.640625 0-2.128907.867188-4.164063 2.402344-5.640625l33.917969-33.921875c1.476562-1.53125 3.511718-2.398438 5.640625-2.398438 2.128906 0 4.164062.867188 5.640625 2.398438l113.117187 113.121093c1.535157 1.476563 2.402344 3.511719 2.402344 5.640626 0 2.128906-.867187 4.164062-2.402344 5.640624zm-226.238281-101.839843-90.480469-90.480469c-1.527343-1.496094-2.390625-3.542969-2.398437-5.679688.007812-2.117187.875-4.136718 2.398437-5.601562l79.199219-79.199219c1.460938-1.53125 3.484375-2.398437 5.601562-2.398437 2.140626 0 4.1875.867187 5.679688 2.398437l90.480469 90.480469c1.527343 1.496094 2.390625 3.542969 2.398437 5.679688-.007812 2.113281-.875 4.136718-2.398437 5.601562l-79.199219 79.199219c-3.121094 3.101562-8.160156 3.101562-11.28125 0zm-113.121094-158.402344-113.117187-113.117187c-1.535157-1.476563-2.402344-3.511719-2.402344-5.640626 0-2.128906.867187-4.164062 2.402344-5.640624l33.917969-33.921876c1.476562-1.53125 3.511718-2.398437 5.640624-2.398437 2.128907 0 4.164063.867187 5.640626 2.398437l113.117187 113.121094c1.535156 1.476563 2.402344 3.511719 2.402344 5.640625 0 2.128907-.867188 4.164063-2.402344 5.640625l-33.917969 33.917969c-1.484375 1.515625-3.519531 2.371094-5.640625 2.371094-2.121093 0-4.15625-.855469-5.640625-2.371094zm0 0" fill="#1a6fb0"/><path d="m229.433594 242.0625 11.3125-11.316406 22.628906 22.628906-11.3125 11.3125zm0 0" fill="#1a6fb0"/><path d="m212.472656 225.09375 11.3125-11.3125 11.3125 11.3125-11.3125 11.3125zm0 0" fill="#1a6fb0"/><path d="m257.71875 270.34375 11.316406-11.308594 11.3125 11.3125-11.316406 11.3125zm0 0" fill="#1a6fb0"/><path d="m161.605469 436.574219c-57.4375 0-104-46.5625-104-104 0-4.417969-3.582031-8-8-8s-8 3.582031-8 8c0 66.273437 53.726562 120 120 120 4.417969 0 8-3.582031 8-8s-3.582031-8-8-8zm0 0" fill="#1a6fb0"/><path d="m161.558594 404.558594c-19.101563.015625-37.421875-7.566406-50.929688-21.070313-13.503906-13.507812-21.085937-31.828125-21.070312-50.929687 0-4.417969-3.582032-8-8-8-4.417969 0-8 3.582031-8 8-.011719 23.34375 9.253906 45.734375 25.761718 62.238281 16.503907 16.507813 38.894532 25.773437 62.238282 25.761719 4.417968 0 8-3.582032 8-8 0-4.417969-3.582032-8-8-8zm0 0" fill="#1a6fb0"/><path d="m161.558594 375.71875h-.222656c-21.984376-.09375-39.753907-17.953125-39.730469-39.9375.019531-4.417969-3.546875-8.015625-7.964844-8.035156-4.417969-.019532-8.015625 3.546875-8.035156 7.964844-.058594 30.855468 24.898437 55.921874 55.753906 56h.246094c4.417969 0 8-3.582032 8-8 0-4.417969-3.582031-8-8-8zm0 0" fill="#1a6fb0"/></svg>