<svg xmlns="http://www.w3.org/2000/svg" xmlns:xlink="http://www.w3.org/1999/xlink" version="1.1" width="1000" height="1000" viewBox="0 0 1000 1000" xml:space="preserve">
<desc>Created with Fabric.js 3.6.3</desc>
<defs>
</defs>
<g transform="matrix(0.00354336435494767 -1.6393893222842273 1.6393893222842273 0.00354336435494767 500.09171362857865 497.4911631493797)" id="uidb9mq5i4d2" style="opacity: 1; ">
	<g transform="matrix(1 0 0 1 0 0)" id="uid5rl9yufy4">
<g style="">
		<g transform="matrix(1 0 0 1 0 0)" id="uid1e24d7b0a">
<g style="">
		<g transform="matrix(1.3314463251784228 0 0 1.3314463251784228 -94.080628340478 77.41762295223253)" id="uid8mp3rzyc8">
<path style="stroke: none; stroke-width: 0; stroke-dasharray:none; stroke-linecap: butt; stroke-dashoffset: 0; stroke-linejoin: miter; stroke-miterlimit: 4; fill: rgb(204,204,206); fill-rule: nonzero; opacity: 1;" transform=" translate(-138.4335935, -268.64453149999997)" d="M 137.132812 268.523438 C 138.007812 268.523438 138.875 268.601562 139.734375 268.765625 C 138.875 268.601562 138.007812 268.523438 137.132812 268.523438 Z M 137.132812 268.523438" stroke-linecap="round"/>
</g>
		<g transform="matrix(1.3314463251784228 0 0 1.3314463251784228 -79.24227302841464 90.3160085616754)" id="uid20whlem02">
<path style="stroke: none; stroke-width: 0; stroke-dasharray:none; stroke-linecap: butt; stroke-dashoffset: 0; stroke-linejoin: miter; stroke-miterlimit: 4; fill: rgb(204,204,206); fill-rule: nonzero; opacity: 1;" transform=" translate(-149.57813236083234, -278.33203100000003)" d="M 148.464844 274.601562 C 149.921875 276.816406 150.691406 279.414062 150.691406 282.0625 C 150.695312 279.410156 149.921875 276.816406 148.464844 274.601562 Z M 148.464844 274.601562" stroke-linecap="round"/>
</g>
		<g transform="matrix(1.3314463251784228 0 0 1.3314463251784228 -80.39427486003768 101.69051324283856)" id="uidr2zgab92a">
<path style="stroke: none; stroke-width: 0; stroke-dasharray:none; stroke-linecap: butt; stroke-dashoffset: 0; stroke-linejoin: miter; stroke-miterlimit: 4; fill: rgb(204,204,206); fill-rule: nonzero; opacity: 1;" transform=" translate(-148.71290647088244, -286.875)" d="M 150.691406 282.078125 C 150.699219 285.671875 149.273438 289.125 146.734375 291.671875 C 149.273438 289.125 150.699219 285.671875 150.691406 282.078125 Z M 150.691406 282.078125" stroke-linecap="round"/>
</g>
		<g transform="matrix(1.3314463251784228 0 0 1.3314463251784228 0.00217784908312524 -0.5083941390208793)" id="uidu5i5unlcz">
<path style="stroke: none; stroke-width: 0; stroke-dasharray:none; stroke-linecap: butt; stroke-dashoffset: 0; stroke-linejoin: miter; stroke-miterlimit: 4; fill: rgb(51,137,242); fill-rule: nonzero; opacity: 1;" transform=" translate(-209.095703125, -210.1171875)" d="M 127.542969 214.914062 L 204.300781 291.671875 C 209.597656 296.96875 218.1875 296.96875 223.484375 291.671875 L 290.648438 224.507812 C 295.945312 219.207031 295.945312 210.617188 290.648438 205.320312 L 213.890625 128.5625 C 208.59375 123.265625 200.003906 123.265625 194.707031 128.5625 L 127.542969 195.726562 C 122.246094 201.027344 122.246094 209.613281 127.542969 214.914062 Z M 233.085938 234.105469 L 223.484375 224.503906 Z M 218.6875 219.710938 L 199.503906 200.523438 Z M 194.707031 195.726562 L 185.105469 186.125 Z M 194.707031 195.726562" stroke-linecap="round"/>
</g>
		<g transform="matrix(1.3314463251784228 0 0 1.3314463251784228 166.07345169252284 165.558329153741)" id="uidzcri37khg">
<path style="stroke: none; stroke-width: 0; stroke-dasharray:none; stroke-linecap: butt; stroke-dashoffset: 0; stroke-linejoin: miter; stroke-miterlimit: 4; fill: rgb(221,51,81); fill-rule: nonzero; opacity: 1;" transform=" translate(-333.825683375, -334.84375)" d="M 261.867188 291.671875 L 290.648438 262.886719 C 295.949219 257.585938 304.539062 257.585938 309.839844 262.886719 L 405.78125 358.832031 C 411.082031 364.128906 411.082031 372.71875 405.78125 378.019531 L 377 406.800781 C 371.699219 412.101562 363.109375 412.101562 357.808594 406.800781 L 261.867188 310.859375 C 256.570312 305.558594 256.570312 296.96875 261.867188 291.671875 Z M 261.867188 291.671875" stroke-linecap="round"/>
</g>
		<g transform="matrix(1.3314463251784228 0 0 1.3314463251784228 -166.06584513172106 -166.57739329626435)" id="uidkz92njgip">
<path style="stroke: none; stroke-width: 0; stroke-dasharray:none; stroke-linecap: butt; stroke-dashoffset: 0; stroke-linejoin: miter; stroke-miterlimit: 4; fill: rgb(221,51,81); fill-rule: nonzero; opacity: 1;" transform=" translate(-84.36816447746952, -85.38891568251675)" d="M 156.328125 109.378906 L 60.382812 13.433594 C 55.085938 8.132812 46.496094 8.132812 41.195312 13.429688 C 41.195312 13.429688 41.191406 13.433594 41.191406 13.433594 L 12.414062 42.214844 C 7.113281 47.511719 7.113281 56.101562 12.410156 61.402344 C 12.410156 61.402344 12.414062 61.40625 12.414062 61.40625 L 108.355469 157.347656 C 113.652344 162.644531 122.242188 162.644531 127.542969 157.347656 L 141.933594 142.953125 L 156.320312 128.5625 C 161.621094 123.265625 161.625 114.675781 156.328125 109.378906 Z M 156.328125 109.378906" stroke-linecap="round"/>
</g>
		<g transform="matrix(1.3314463251784228 0 0 1.3314463251784228 -95.84094806771164 95.30410291292584)" id="uidbu0mnme22">
<path style="stroke: none; stroke-width: 0; stroke-dasharray:none; stroke-linecap: butt; stroke-dashoffset: 0; stroke-linejoin: miter; stroke-miterlimit: 4; fill: rgb(204,204,206); fill-rule: nonzero; opacity: 1;" transform=" translate(-137.11148257900754, -282.0784038405139)" d="M 137.132812 268.523438 C 135.382812 268.523438 133.648438 268.859375 132.027344 269.511719 C 130.347656 270.191406 128.820312 271.199219 127.542969 272.476562 C 126.894531 273.125 126.316406 273.839844 125.8125 274.601562 C 121.664062 280.8125 123.335938 289.207031 129.542969 293.355469 C 131.789062 294.855469 134.433594 295.648438 137.132812 295.632812 C 138.007812 295.640625 138.878906 295.566406 139.738281 295.40625 C 142.394531 294.910156 144.832031 293.613281 146.734375 291.699219 C 151.265625 287.128906 151.988281 280.011719 148.464844 274.628906 C 147.957031 273.867188 147.378906 273.15625 146.734375 272.503906 C 144.824219 270.597656 142.386719 269.304688 139.734375 268.792969 C 138.878906 268.621094 138.007812 268.53125 137.132812 268.523438 Z M 137.132812 268.523438" stroke-linecap="round"/>
</g>
		<g transform="matrix(1.3314463251784228 0 0 1.3314463251784228 -94.07802802580494 113.15640580487326)" id="uidz7ugb6h1c">
<path style="stroke: none; stroke-width: 0; stroke-dasharray:none; stroke-linecap: butt; stroke-dashoffset: 0; stroke-linejoin: miter; stroke-miterlimit: 4; fill: rgb(204,204,206); fill-rule: nonzero; opacity: 1;" transform=" translate(-138.4355465, -295.4866070510752)" d="M 137.132812 295.597656 C 138.007812 295.605469 138.878906 295.53125 139.738281 295.375 C 138.878906 295.53125 138.007812 295.605469 137.132812 295.597656 Z M 137.132812 295.597656" stroke-linecap="round"/>
</g>
		<g transform="matrix(1.3314463251784228 0 0 1.3314463251784228 -99.20877641157486 77.91431500950142)" id="uid19856fqe3">
<path style="stroke: none; stroke-width: 0; stroke-dasharray:none; stroke-linecap: butt; stroke-dashoffset: 0; stroke-linejoin: miter; stroke-miterlimit: 4; fill: rgb(204,204,206); fill-rule: nonzero; opacity: 1;" transform=" translate(-134.5820315, -269.0175785)" d="M 132.027344 269.511719 C 133.648438 268.859375 135.386719 268.523438 137.136719 268.523438 C 135.382812 268.523438 133.648438 268.859375 132.027344 269.511719 Z M 132.027344 269.511719" stroke-linecap="round"/>
</g>
		<g transform="matrix(1.3314463251784228 0 0 1.3314463251784228 0 0)" id="uido5ud981ro">
<path style="stroke: none; stroke-width: 0; stroke-dasharray:none; stroke-linecap: butt; stroke-dashoffset: 0; stroke-linejoin: miter; stroke-miterlimit: 4; fill: rgb(33,30,30); fill-rule: nonzero; opacity: 1;" transform=" translate(-209.09406742325075, -210.49902350000002)" d="M 411.863281 357.070312 L 309.421875 254.628906 C 304.679688 249.878906 296.984375 249.878906 292.238281 254.621094 C 292.234375 254.621094 292.234375 254.625 292.230469 254.628906 L 276.6875 270.171875 L 267.027344 260.515625 L 297.058594 230.46875 C 298.078125 229.484375 298.925781 228.335938 299.570312 227.078125 C 303.875 218.996094 302.425781 209.054688 295.996094 202.539062 L 218.75 125.3125 C 210.742188 117.335938 197.792969 117.335938 189.785156 125.3125 L 160.816406 154.28125 L 151.15625 144.648438 L 161.882812 133.929688 C 162.898438 132.945312 163.75 131.796875 164.394531 130.539062 C 168.699219 122.457031 167.25 112.515625 160.816406 106 L 58.375 3.554688 C 53.628906 -1.183594 45.9375 -1.183594 41.191406 3.554688 L 5.269531 39.511719 C 4.253906 40.5 3.402344 41.644531 2.753906 42.90625 C -1.546875 50.988281 -0.0976562 60.925781 6.335938 67.441406 L 102.882812 163.984375 C 110.886719 171.96875 123.847656 171.96875 131.851562 163.984375 L 141.503906 154.328125 L 151.167969 163.984375 L 121.125 194.023438 C 120.109375 195.011719 119.261719 196.15625 118.613281 197.417969 C 114.3125 205.496094 115.765625 215.433594 122.199219 221.949219 L 155.988281 255.738281 L 145.378906 266.351562 C 137.585938 262.800781 128.421875 264.332031 122.203125 270.214844 C 118.347656 274.007812 116.195312 279.203125 116.242188 284.613281 C 116.238281 284.644531 116.238281 284.675781 116.242188 284.707031 C 116.238281 284.738281 116.238281 284.765625 116.242188 284.796875 C 116.222656 295.925781 125.160156 305 136.289062 305.148438 L 136.859375 305.148438 C 142.222656 305.152344 147.371094 303.007812 151.144531 299.191406 C 157.246094 293.054688 158.824219 283.742188 155.085938 275.933594 L 165.675781 265.339844 L 199.476562 299.136719 C 207.480469 307.113281 220.433594 307.113281 228.4375 299.136719 L 257.40625 270.167969 L 267.066406 279.824219 L 256.339844 290.550781 C 255.324219 291.523438 254.476562 292.65625 253.832031 293.90625 C 249.523438 301.988281 250.972656 311.929688 257.40625 318.445312 L 353.925781 415 C 361.929688 422.996094 374.898438 422.996094 382.902344 415 L 412.929688 384.972656 C 413.945312 383.984375 414.792969 382.839844 415.445312 381.582031 C 419.730469 373.503906 418.28125 363.582031 411.863281 357.070312 Z M 122.746094 152.550781 C 120.097656 155.203125 115.800781 155.207031 113.152344 152.558594 C 113.148438 152.554688 113.148438 152.554688 113.148438 152.550781 L 17.210938 56.601562 C 14.5625 53.953125 14.5625 49.660156 17.210938 47.007812 L 45.988281 18.230469 C 48.636719 15.582031 52.929688 15.578125 55.582031 18.226562 C 55.582031 18.226562 55.585938 18.230469 55.585938 18.230469 L 151.53125 114.171875 C 154.179688 116.824219 154.179688 121.117188 151.53125 123.765625 Z M 138.140625 288.628906 C 137.777344 288.726562 137.410156 288.789062 137.039062 288.820312 C 135.277344 288.820312 133.589844 288.117188 132.34375 286.875 C 131.046875 285.585938 130.339844 283.816406 130.390625 281.988281 C 130.375 280.21875 131.082031 278.519531 132.34375 277.28125 C 134.320312 275.417969 137.191406 274.859375 139.71875 275.847656 C 140.550781 276.167969 141.304688 276.660156 141.9375 277.289062 C 142.578125 277.925781 143.082031 278.6875 143.421875 279.527344 C 143.746094 280.339844 143.917969 281.207031 143.917969 282.085938 C 143.917969 283.882812 143.207031 285.609375 141.9375 286.878906 C 140.882812 287.84375 139.554688 288.453125 138.140625 288.628906 Z M 218.6875 286.867188 C 216.039062 289.515625 211.746094 289.515625 209.09375 286.867188 L 132.34375 210.117188 C 129.695312 207.46875 129.695312 203.171875 132.34375 200.523438 L 199.507812 133.359375 C 202.160156 130.710938 206.453125 130.710938 209.101562 133.359375 L 285.847656 210.117188 C 288.496094 212.765625 288.496094 217.058594 285.847656 219.710938 Z M 400.980469 373.222656 L 372.203125 402 C 369.554688 404.652344 365.257812 404.65625 362.609375 402.007812 C 362.605469 402.003906 362.605469 402.003906 362.605469 402 L 266.660156 306.058594 C 264.011719 303.410156 264.011719 299.117188 266.660156 296.464844 L 295.445312 267.679688 C 298.09375 265.03125 302.390625 265.027344 305.042969 267.675781 C 305.042969 267.675781 305.046875 267.679688 305.046875 267.679688 L 400.984375 363.628906 C 403.628906 366.28125 403.628906 370.574219 400.980469 373.222656 Z M 400.980469 373.222656" stroke-linecap="round"/>
</g>
		<g transform="matrix(1.3314463251784228 0 0 1.3314463251784228 -0.00302294669381808 -0.5083948047440003)" id="uidrqsnyyqjo">
<path style="stroke: none; stroke-width: 0; stroke-dasharray:none; stroke-linecap: butt; stroke-dashoffset: 0; stroke-linejoin: miter; stroke-miterlimit: 4; fill: rgb(33,30,30); fill-rule: nonzero; opacity: 1;" transform=" translate(-209.09179699999999, -210.117187)" d="M 194.699219 205.320312 L 204.292969 195.726562 L 223.484375 214.914062 L 213.890625 224.507812 Z M 194.699219 205.320312" stroke-linecap="round"/>
</g>
		<g transform="matrix(1.3314463251784228 0 0 1.3314463251784228 -25.5423483670356 -26.055519837658693)" id="uid4rj51bv4s">
<path style="stroke: none; stroke-width: 0; stroke-dasharray:none; stroke-linecap: butt; stroke-dashoffset: 0; stroke-linejoin: miter; stroke-miterlimit: 4; fill: rgb(33,30,30); fill-rule: nonzero; opacity: 1;" transform=" translate(-189.910156, -190.929688)" d="M 180.316406 190.929688 L 189.910156 181.335938 L 199.503906 190.929688 L 189.910156 200.523438 Z M 180.316406 190.929688" stroke-linecap="round"/>
</g>
		<g transform="matrix(1.3314463251784228 0 0 1.3314463251784228 25.544103417667145 25.028330300924665)" id="uidshqhle7qp">
<path style="stroke: none; stroke-width: 0; stroke-dasharray:none; stroke-linecap: butt; stroke-dashoffset: 0; stroke-linejoin: miter; stroke-miterlimit: 4; fill: rgb(33,30,30); fill-rule: nonzero; opacity: 1;" transform=" translate(-228.27929699999999, -229.296875)" d="M 218.683594 229.292969 L 228.28125 219.703125 L 237.875 229.296875 L 228.277344 238.890625 Z M 218.683594 229.292969" stroke-linecap="round"/>
</g>
		<g transform="matrix(1.3314463251784228 0 0 1.3314463251784228 -158.9756337881144 158.5318295439618)" id="uidm8pnx3t3w">
<path style="stroke: none; stroke-width: 0; stroke-dasharray:none; stroke-linecap: butt; stroke-dashoffset: 0; stroke-linejoin: miter; stroke-miterlimit: 4; fill: rgb(33,30,30); fill-rule: nonzero; opacity: 1;" transform=" translate(-89.6933595, -329.5664065)" d="M 137.183594 370.273438 C 88.472656 370.273438 48.988281 330.785156 48.988281 282.078125 C 48.988281 278.332031 45.949219 275.292969 42.203125 275.292969 C 38.457031 275.292969 35.417969 278.332031 35.417969 282.078125 C 35.417969 338.28125 80.980469 383.839844 137.183594 383.839844 C 140.929688 383.839844 143.96875 380.804688 143.96875 377.058594 C 143.964844 373.308594 140.929688 370.273438 137.183594 370.273438 Z M 137.183594 370.273438" stroke-linecap="round"/>
</g>
		<g transform="matrix(1.3314463251784228 0 0 1.3314463251784228 -140.9647102080443 140.44808361482922)" id="uidjqw7i2hcj">
<path style="stroke: none; stroke-width: 0; stroke-dasharray:none; stroke-linecap: butt; stroke-dashoffset: 0; stroke-linejoin: miter; stroke-miterlimit: 4; fill: rgb(33,30,30); fill-rule: nonzero; opacity: 1;" transform=" translate(-103.2206968319473, -315.984375)" d="M 137.140625 343.121094 C 103.445312 343.148438 76.109375 315.851562 76.082031 282.15625 C 76.082031 282.125 76.082031 282.09375 76.082031 282.0625 C 76.082031 278.316406 73.046875 275.277344 69.300781 275.277344 C 65.550781 275.277344 62.515625 278.316406 62.515625 282.0625 C 62.492188 323.253906 95.867188 356.667969 137.058594 356.691406 C 137.085938 356.691406 137.113281 356.691406 137.140625 356.691406 C 140.886719 356.691406 143.925781 353.652344 143.925781 349.90625 C 143.925781 346.160156 140.886719 343.121094 137.140625 343.121094 Z M 137.140625 343.121094" stroke-linecap="round"/>
</g>
		<g transform="matrix(1.3314463251784228 0 0 1.3314463251784228 -122.84201006896888 125.96334089215873)" id="uidm1dq42fvx">
<path style="stroke: none; stroke-width: 0; stroke-dasharray:none; stroke-linecap: butt; stroke-dashoffset: 0; stroke-linejoin: miter; stroke-miterlimit: 4; fill: rgb(33,30,30); fill-rule: nonzero; opacity: 1;" transform=" translate(-116.83198539564276, -305.1054214524513)" d="M 137.140625 318.664062 L 136.953125 318.664062 C 118.308594 318.585938 103.242188 303.441406 103.261719 284.796875 C 103.277344 281.050781 100.253906 278 96.507812 277.984375 C 92.761719 277.964844 89.710938 280.988281 89.695312 284.738281 C 89.644531 310.902344 110.804688 332.160156 136.972656 332.226562 L 137.183594 332.226562 C 140.929688 332.226562 143.96875 329.1875 143.96875 325.441406 C 143.96875 321.695312 140.929688 318.65625 137.183594 318.65625 Z M 137.140625 318.664062" stroke-linecap="round"/>
</g>
</g>
</g>
</g>
</g>
</g>
</svg>